Coordinates
version=1
nRows=16
nColumns=40
inDegrees=yes

Units are S.I. units (second, meters, Newtons, ...)
Angles are in degrees.

endheader
time	pelvis_tilt	pelvis_list	pelvis_rotation	pelvis_tx	pelvis_ty	pelvis_tz	hip_flexion_r	hip_adduction_r	hip_rotation_r	knee_angle_r	knee_angle_r_beta	ankle_angle_r	subtalar_angle_r	mtp_angle_r	hip_flexion_l	hip_adduction_l	hip_rotation_l	knee_angle_l	knee_angle_l_beta	ankle_angle_l	subtalar_angle_l	mtp_angle_l	lumbar_extension	lumbar_bending	lumbar_rotation	arm_flex_r	arm_add_r	arm_rot_r	elbow_flex_r	pro_sup_r	wrist_flex_r	wrist_dev_r	arm_flex_l	arm_add_l	arm_rot_l	elbow_flex_l	pro_sup_l	wrist_flex_l	wrist_dev_l
      9.96000000	     -5.49047013	     -4.29151247	     -1.46601149	      0.97288745	      0.90832878	      0.38290937	      6.50126027	     -7.89487704	     -8.64685635	     39.89156900	     39.89156900	     10.48997921	     -6.18306774	    -16.02881793	     24.68814300	     -1.59450425	      0.61772247	     36.04464943	     36.04464943	     19.42607297	    -16.70069163	      8.61241252	     -9.13866311	      5.71943867	      5.49412508	     24.31947814	    -13.21620125	    -15.83206785	     27.45858847	     45.62181001	      0.00000000	      0.00000000	     19.70091733	    -14.00292429	     19.70185481	     31.97790020	     44.42413486	      0.00000000	      0.00000000
      9.98328571	     -5.36930208	     -4.34687567	     -2.04729064	      0.97162824	      0.90715520	      0.38116810	      9.25018576	     -7.94476872	     -6.94598396	     44.77745829	     44.77745829	      9.30363083	     -8.69035590	    -15.26411156	     24.55570843	     -1.59219666	      0.40482652	     36.64173041	     36.64173041	     19.93142355	    -17.18164219	      8.72688617	     -9.34486107	      5.89343009	      4.81184928	     20.44738654	    -12.63767840	    -15.85362388	     26.20013775	     45.66698571	      0.00000000	      0.00000000	     21.45674073	    -14.46604662	     19.13812374	     33.25432256	     44.54622707	      0.00000000	      0.00000000
     10.00657143	     -5.25475128	     -4.42004933	     -2.67795415	      0.97025128	      0.90608346	      0.37961921	     11.94942323	     -7.78324059	     -5.22554769	     49.32965312	     49.32965312	      8.38075997	    -10.63102236	    -13.34608450	     24.37961761	     -1.63478680	      0.14428959	     37.16719530	     37.16719530	     20.48922008	    -17.56584860	      8.98400083	     -9.60734571	      6.08744128	      4.31973098	     16.28347044	    -12.26193343	    -15.78166822	     25.02837366	     45.69864361	      0.00000000	      0.00000000	     23.39406325	    -14.92521998	     18.37365663	     34.66931663	     44.69735673	      0.00000000	      0.00000000
     10.02985714	     -5.11759773	     -4.44573752	     -3.35381798	      0.96876855	      0.90535061	      0.37825967	     14.66157381	     -7.59901187	     -3.64968484	     53.75674491	     53.75674491	      9.55399391	    -10.48915011	     -5.92863875	     24.12128142	     -1.64086323	     -0.16489861	     37.62629737	     37.62629737	     21.43558235	    -17.77008675	     10.19948418	     -9.97331115	      6.24848280	      3.81792624	     11.65596510	    -11.99749521	    -15.13060887	     25.45498499	     45.67809817	      0.00000000	      0.00000000	     25.19747061	    -15.34467052	     16.19567819	     36.37682513	     45.08736131	      0.00000000	      0.00000000
     10.05314286	     -5.01017631	     -4.43378395	     -4.03189363	      0.96716802	      0.90512134	      0.37722441	     16.99798139	     -7.29881154	     -2.20477298	     56.82046096	     56.82046096	      8.56605837	    -11.52840817	     -5.35141381	     23.69877272	     -1.64444493	     -0.55739675	     37.67029650	     37.67029650	     21.74917501	    -18.06301511	     10.20133869	    -10.23144537	      6.33988134	      3.13172833	      7.97113295	    -11.65664520	    -15.06410763	     23.99407969	     45.71315059	      0.00000000	      0.00000000	     27.17601868	    -16.13092601	     15.62712124	     37.34266056	     45.18996753	      0.00000000	      0.00000000
     10.07642857	     -5.01458189	     -4.61789784	     -4.77438327	      0.96541238	      0.90549454	      0.37667183	     19.38788682	     -6.58022210	     -0.79927122	     59.39225320	     59.39225320	      9.82783677	    -11.34114325	      1.08233873	     23.30696639	     -1.89350516	     -0.88966806	     37.58465765	     37.58465765	     22.29243019	    -18.21837174	     10.93682578	    -10.52241319	      6.68997160	      3.05980679	      3.38817881	    -11.69798145	    -14.20010034	     24.34761625	     45.71138049	      0.00000000	      0.00000000	     28.87012755	    -16.29513398	     12.46280927	     39.52761574	     45.66191740	      0.00000000	      0.00000000
     10.09971429	     -4.91449624	     -4.70534738	     -5.49481675	      0.96352353	      0.90669471	      0.37653980	     21.26975774	     -6.05481873	      0.18490194	     60.58910127	     60.58910127	      9.39721373	    -11.54198384	      1.06255523	     22.63125479	     -2.09836223	     -1.41096495	     37.12181367	     37.12181367	     22.41403162	    -18.33515389	     11.02372475	    -10.84188825	      6.85277687	      2.27510547	      0.34650386	    -11.52140099	    -14.21401809	     23.21400107	     45.74080994	      0.00000000	      0.00000000	     30.68585400	    -17.53381605	     11.92134916	     40.30852792	     45.74720544	      0.00000000	      0.00000000
     10.12300000	     -5.02764028	     -4.77002198	     -6.37827434	      0.96134090	      0.90827126	      0.37701185	     23.30036022	     -5.34224766	      1.24681484	     60.96710873	     60.96710873	      9.19771555	    -11.95858656	      1.27605296	     22.00742837	     -2.37182794	     -2.08636595	     36.31743485	     36.31743485	     22.40892455	    -18.38207973	     11.13755440	    -11.07525935	      6.97928982	      2.74434799	     -3.44173805	    -11.51659597	    -14.14801936	     23.08636682	     45.75572503	      0.00000000	      0.00000000	     32.17315177	    -17.74353337	      9.85294614	     43.38782582	     46.02009176	      0.00000000	      0.00000000
     10.14628571	     -5.23439044	     -4.96803588	     -7.17089891	      0.95900411	      0.91035302	      0.37788579	     25.04735894	     -4.62637732	      1.75793134	     60.18567436	     60.18567436	      9.46741185	    -11.64098026	      1.11503407	     21.43766457	     -2.80346482	     -2.66027996	     35.42033577	     35.42033577	     22.34764129	    -18.33330077	     11.32992528	    -11.05732552	      7.24592800	      1.97935078	     -5.79792199	    -11.48720179	    -14.21155615	     22.34345635	     45.77601415	      0.00000000	      0.00000000	     33.83425423	    -19.13736430	      9.29729082	     44.01170107	     46.09708376	      0.00000000	      0.00000000
     10.16957143	     -5.44176183	     -4.90721288	     -8.13382879	      0.95664831	      0.91305920	      0.37913017	     26.48503766	     -4.09077526	      2.34252334	     58.08653042	     58.08653042	      8.25238656	    -12.27895599	     -3.29132257	     20.49608134	     -3.00550754	     -3.55210550	     33.77796489	     33.77796489	     21.67002612	    -18.37146719	     10.55872870	    -11.25808394	      7.21329002	      2.14821642	     -9.15803047	    -11.50841314	    -13.37188642	     23.81055827	     45.76736124	      0.00000000	      0.00000000	     34.22004917	    -19.16150648	      3.89840153	     48.85694349	     46.67724354	      0.00000000	      0.00000000
     10.19285714	     -5.74370771	     -4.94407684	     -9.05806415	      0.95413226	      0.91585072	      0.38076938	     27.70284970	     -3.56351630	      2.47075587	     55.05568326	     55.05568326	      7.81946954	    -12.01814198	     -6.15659376	     19.66207564	     -3.33925410	     -4.42549447	     32.15859875	     32.15859875	     21.07375791	    -18.27120428	     10.06608424	    -11.29328886	      7.26884800	      2.02858311	    -11.59409675	    -11.52540843	    -13.20460008	     24.66845758	     45.77382629	      0.00000000	      0.00000000	     35.04626369	    -20.16463562	      2.15225974	     52.11097605	     46.87576447	      0.00000000	      0.00000000
     10.21614286	     -6.06112369	     -4.91506649	    -10.00202200	      0.95154426	      0.91873103	      0.38271704	     28.63756433	     -3.19221439	      2.25931940	     51.19147987	     51.19147987	      7.92035505	    -10.70247176	     -7.36275971	     18.79705229	     -3.61425257	     -5.39140310	     30.44451956	     30.44451956	     20.58429887	    -18.06843012	     10.01931136	    -11.28944740	      7.18367642	      2.40315096	    -13.52548242	    -11.40065992	    -13.14229646	     24.52734149	     45.77991829	      0.00000000	      0.00000000	     36.60098458	    -20.73035263	      1.11467640	     54.28978046	     47.00361798	      0.00000000	      0.00000000
     10.23942857	     -6.52613253	     -4.99036786	    -10.86812855	      0.94905413	      0.92133054	      0.38489076	     29.19976120	     -2.63568217	      1.83230482	     46.35821819	     46.35821819	      8.16747892	     -9.10155817	     -7.66296328	     18.10327163	     -4.00432473	     -6.23872784	     28.79434295	     28.79434295	     20.17391885	    -17.75930996	     10.12070679	    -11.04897003	      7.39456505	      2.47851392	    -14.88701747	    -11.38220960	    -13.18226373	     24.49695669	     45.78009466	      0.00000000	      0.00000000	     37.90737324	    -21.55543623	      0.37328783	     55.70813068	     47.09282772	      0.00000000	      0.00000000
     10.26271429	     -6.86561260	     -4.91605411	    -11.76795781	      0.94683437	      0.92356691	      0.38740036	     29.18914293	     -2.33054677	      1.07483894	     40.63589425	     40.63589425	      7.07154829	     -6.94843909	    -11.02630266	     17.15482030	     -4.24313400	     -7.31922895	     26.88094269	     26.88094269	     18.85604839	    -17.62860070	      7.78701629	    -11.05675057	      7.25173908	      2.19510311	    -16.42648504	    -11.38114586	    -13.07152414	     26.88664589	     45.71056668	      0.00000000	      0.00000000	     37.79277320	    -22.41859996	     -3.20227000	     60.92448280	     47.44137356	      0.00000000	      0.00000000
     10.28600000	     -7.15805339	     -4.80362647	    -12.55388671	      0.94486642	      0.92537108	      0.38997277	     28.83918749	     -2.04820724	      0.07429059	     34.74218660	     34.74218660	      6.83556697	     -3.42736015	    -10.35682148	     16.34986622	     -4.39278036	     -8.25243235	     25.38647992	     25.38647992	     18.49569881	    -17.23316123	      7.57508067	    -10.95178901	      7.12070570	      2.61129436	    -17.24002858	    -11.22595898	    -12.87156320	     26.99643733	     45.69840899	      0.00000000	      0.00000000	     39.25452028	    -22.89205246	     -3.93276061	     62.76843284	     47.53244111	      0.00000000	      0.00000000
     10.30928571	     -7.40115608	     -4.57823736	    -13.23664563	      0.94335442	      0.92643774	      0.39262527	     28.25268168	     -1.88920287	     -1.18668275	     28.93337248	     28.93337248	      6.57456814	      0.99650777	     -8.39093900	     15.59115094	     -4.39768879	     -9.15301972	     24.04802362	     24.04802362	     18.00572758	    -16.85272858	      6.69504629	    -10.81851874	      6.89144388	      2.80286841	    -17.88041593	    -11.07131087	    -12.69290588	     27.75799831	     45.66561923	      0.00000000	      0.00000000	     40.22888870	    -23.36980391	     -5.13440363	     65.36819665	     47.66461023	      0.00000000	      0.00000000
